<svg enable-background="new 0 0 58 58" height="512" viewBox="0 0 58 58" width="512" xmlns="http://www.w3.org/2000/svg"><g fill="#f7e6a1"><path d="m56 33c-.394 0-.768-.234-.926-.621l-9-22c-.209-.512.036-1.096.547-1.305.513-.208 1.095.037 1.304.547l9 22c.209.512-.036 1.096-.547 1.305-.123.051-.252.074-.378.074z"/><path d="m38 33c-.126 0-.254-.023-.378-.074-.511-.209-.756-.793-.547-1.305l9-22c.209-.511.792-.755 1.304-.547.511.209.756.793.547 1.305l-9 22c-.159.387-.532.621-.926.621z"/><path d="m20 33c-.394 0-.768-.234-.926-.621l-9-22c-.209-.512.036-1.096.547-1.305.512-.208 1.095.037 1.304.547l9 22c.209.512-.036 1.096-.547 1.305-.123.051-.252.074-.378.074z"/><path d="m2 33c-.126 0-.254-.023-.378-.074-.511-.209-.756-.793-.547-1.305l9-22c.209-.511.792-.755 1.304-.547.511.209.756.793.547 1.305l-9 22c-.159.387-.532.621-.926.621z"/></g><path d="m29 6.555c-.732 0-1.41-.211-2-.555v49h4v-49c-.59.344-1.268.555-2 .555z" fill="#c99a17"/><path d="m11.223 10.356c-.811 0-1.644-.136-2.446-.412-1.803-.623-3.134-1.855-3.65-3.381-.068-.202-.097-.321-.097-.321-.13-.535.197-1.078.732-1.21.535-.13 1.072.188 1.207.721.004.015.021.075.053.17.316.934 1.194 1.711 2.408 2.131 1.433.493 3.029.374 4.066-.306 3.304-2.166 7.981-4.748 11.504-4.748.552 0 1 .447 1 1s-.448 1-1 1c-3.189 0-7.889 2.771-10.407 4.421-.943.618-2.13.935-3.37.935z" fill="#c99a17"/><path d="m46.777 10.356c-1.239 0-2.426-.317-3.369-.935-2.519-1.65-7.219-4.421-10.408-4.421-.552 0-1-.447-1-1s.448-1 1-1c3.523 0 8.2 2.582 11.504 4.749 1.037.68 2.633.798 4.066.305 1.214-.42 2.092-1.196 2.408-2.131.032-.095.049-.155.052-.17.138-.531.678-.852 1.211-.717.532.134.857.673.728 1.206 0 0-.029.119-.097.321-.516 1.525-1.847 2.758-3.651 3.381-.8.277-1.634.412-2.444.412z" fill="#c99a17"/><circle cx="29" cy="4" fill="#ebba16" r="4"/><path d="m46 42h2c5.523 0 10-4.477 10-10h-22c0 5.523 4.477 10 10 10z" fill="#ebba16"/><path d="m23 54h12v4h-12z" fill="#ebba16"/><path d="m10 42h2c5.523 0 10-4.477 10-10h-22c0 5.523 4.477 10 10 10z" fill="#ebba16"/></svg>